/* XPM */
static char *coll[] = {
/* columns rows colors chars-per-pixel */
"32 32 9 1 ",
"  c #492424",
". c #6D2449",
"X c #6D4949",
"o c #924949",
"O c #926D49",
"+ c #B6926D",
"@ c #B6B6B6",
"# c gray86",
"$ c None",
/* pixels */
"$$$$$$$$$$$$$$$$$$$$$$$$$$$$$$$$",
"$$$$$$$$$$$$$$$$$$$$$$$$$$$$$$$$",
"$$$$$$$$$$$$$$$$$$ $$$$$$$$$$$$$",
"$$$$$$$$$$$$$$$$$$X $$$$$$$$$$$$",
"$$$$$$$$ $$$$$$$$ + $$$$$$$$$$$$",
"$$$$$$$$ X$$$$$$$X@.$$$$$$$$$$$$",
"$$$$$$$$ @X$$$$$ +@X$$$$$$$$$$$$",
"$$$$$$$$ +@X$$$$+#+X$$$$$$$$$$$$",
"$X $$$$$ O++X.$+@@+O$$$$$ X+$$$$",
"$ +X $$$ OOXXOooOXX.  $ X+@O$$$$",
"$$O@+X $XOO++O+O+OOXX. ++#+X$$$$",
"$$X+@XXO+@+@+@+@+++OOXXX@+O$$$$$",
"$$ OXoO+@+@+@@@@@@+++oOX.OX$$$$$",
"$$$X @+@+@+@+@+@@#@@++oOX. $$$$$",
"$$$ O+@+++OXXXXX++@#@++oXX.OX   ",
"  X +@++OXXOOOXO.X+@#@++OXXO@@+O",
"++ +@++OXO++@@+OOX.+@#@+OOX.+OX$",
"X+ @+@+XO@+++++@OOXX+@@@+OXXO $$",
"$XX+@+OX+++XXXO++OX.++#++OXX $$$",
"$$X@++XO@+XO+OXO@XOXX@@@++OX.$$$",
"$$o+++XX++X+@+OX@OXX.+#@@+XO.OX$",
"$ o@++XO@++XX++X@XOX.@#@+OOX.@#@",
" Xo+@+OX+@@+++OX+OXX.+#@@+XO.+O ",
"+OXO++OXOO+++OXO+XOXX@@@+OOX.O $",
"   XO++OXOOOXXO+XOX.+@#@@+XX. $$",
"$$$.XO+++OOOOO+OOXXX+#@@+Oo..$$$",
"$$ o.XOO+++++OOOXX.+@#@@+OX. $$$",
"$$XOo..XOOOOOXOXX.+@#@@+OoX.X $$",
"$ O+X  ..X.X.X..XO@+@@@+oX XXX$$",
"$X+X $$X  ....  O++@+@+OX XXO+X$",
"$+ $$$$ OX $ XO  .XO+OOX $$ XOO ",
"$ $$$$$ O $$$ X $$ ..XX $$$$$ XX"
};
