/* XPM */
static char *down[] = {
/* columns rows colors chars-per-pixel */
"32 32 11 1 ",
"  c #490000",
". c #6D2400",
"X c #242449",
"o c #49496D",
"O c #922424",
"+ c #B64900",
"@ c #DB9200",
"# c #6D6D92",
"$ c #B6B692",
"% c white",
"& c None",
/* pixels */
"&&&&&&&&&&&&&&&&&&&&&&&&&&&&&&&&",
"&&&&&&&&&&&&&&&&&&&&&&&&&&&&&&&&",
"&&&&& O &&& O &&&& O &&& O &&&&&",
"&&&&X+ &&&X+ &&&&&& +X&&& +X&&&&",
"&&& +X&& .. &&&&&&&& .. &&X+ &&&",
"&& . &&XO+OX&&&&&&&&XO+OX&& . &&",
"& +.X&& @+ &&&&&&&&&& +@ &&X.+ &",
" +O.&&&.+ X&&&&&&&&&&X +.&&&.O+ ",
" .O X&&.OO. X&&&&&&X .OO.&&X O. ",
"XO+O. X&O$+O.X&&&&X.O+$O&X .O+OX",
"&X.O@+O &O@O  .OO.  O@O& O+@O.X&",
"O. X .O+OX  .+O++O+.  XO+O. X .O",
" O++O X ...O+O+OO+O+O... X O++O ",
"&X.X.. .OOO+O+O++O+O+OOO. ..X.X&",
"&&&.OO.OO+OO+$+OO+$+OO+OO.OO.&&&",
"& .+@ .O+++OO+O++O+OO+++O. @+. &",
"XO@+. .O@+O++OOOOOO++O+@O. .+@OX",
"O+O.& .O++@++++OO++++@++O. &.O+O",
"++.&&&.O+@+@++++++++@+@+O.&&&.++",
"@OX&   .++@@@+@++@+@@@++.   &XO@",
"+X& .OO O++@$@@@@@@$@++O OO. &X+",
"+X&.O@+  .O++@$$$$@++O.  +@O.&X+",
"O&&O+$+.&& .O++++++O. &&.+$+O&&O",
".&& O++ &X#X&  ..  &X#X& ++O &&.",
"X&&& .O. &XX&&&&&&&&XX& .O. &&&X",
"&&&X.++O. &&&&&&&&&&&& .O++.X&&&",
"&&&XO@$+. &&&&&&&&&&&& .+$@OX&&&",
"&&&X.+%@O.XX&&&&&&&&XX.O@%+.X&&&",
"&&&& O+$+OXoX&&&&&&XoXO+$+O &&&&",
"&&&&& .O+XXXXo&&&&oXXXX+O. &&&&&",
"&&&&&& .Xo#XXXo&&oXXX#oX. &&&&&&",
"&&&&&&&X Xo#oXX&&XXo#oX X&&&&&&&"
};
