/* XPM */
static char *down[] = {
/* columns rows colors chars-per-pixel */
"31 64 7 1 ",
"  c #494992",
". c #6D6DB6",
"X c #9292B6",
"o c #B6B6DB",
"O c #DBDBFF",
"+ c white",
"@ c None",
/* pixels */
"@@@@@@@@ @@@@@@@@@@@@@ @@@@@@@@",
"@@@@@@@@XX @@@@@@@@@ XX@@@@@@@@",
"@@@@@@@@XoooX. @ .XoooX@@@@@@@@",
"@@@@@@@@@oOXoXX.XXoXOo@@@@@@@@@",
"@@@@@@@@@ ooXoXoXoXoo @@@@@@@@@",
"@@@@@@@@@@ XOXoXoXOX @@@@@@@@@@",
"@@@@@@@@@@@ XXXoXXX @@@@@@@@@@@",
"@@@@@@@@@@@@ XoXoX @@@@@@@@@@@@",
"@@@@@@@@@@@@@ XoX @@@@@@@@@@@@@",
"@@@@@@@@@@@@@ XXX @@@@@@@@@@@@@",
"@@@@@@@@@@@@@ .o. @@@@@@@@@@@@@",
"@@@@@@@@@@@@@ .X. @@@@@@@@@@@@@",
"@@@@@@@@@@@@@ .X. @@@@@@@@@@@@@",
"@@@@@@@@@@@@  .X.  @@@@@@@@@@@@",
"@@@@@@@@@@@@  XXX  @@@@@@@@@@@@",
"@@@@@@@@@@@@  XXX  @@@@@@@@@@@@",
"@@@@@@@@@@@@ .XoX. @@@@@@@@@@@@",
"@@@@@@@@@@@  .XXX.  @@@@@@@@@@@",
"@@@@@@@@@@@  XXoXX  @@@@@@@@@@@",
"@@@@@@@@@@@ .XoXoX. @@@@@@@@@@@",
"@@@@@@@@@@@ .XXOXX. @@@@@@@@@@@",
"@@@@@@@@@@  .XOoOX.  @@@@@@@@@@",
"@@@@@@@@@@  XoXOXoX  @@@@@@@@@@",
"@@@@@@@@@@ .XXoOoXX. @@@@@@@@@@",
"@@@@@@@@@@. XoO+OoX .@@@@@@@@@@",
"@@@@@@@@@@ .oXOOOXo. @@@@@@@@@@",
"@@@@@@@@@  XXOOOOOXX  @@@@@@@@@",
"@@@@@@@@@  XoXO+OXoX  @@@@@@@@@",
"@@@@@@@@@ .oXOOOOOXo. @@@@@@@@@",
"@@@@@@@@@ .XoXOOOXoX. @@@@@@@@@",
"@@@@@@@@@ .oXOOOOOXo. @@@@@@@@@",
"@@@@@@@@  .XOoOXOoOX.  @@@@@@@@",
"@@@@@@@@  XoXOoXoOXoX  @@@@@@@@",
"@@@@@@@@  XXOOXXXOOXX  @@@@@@@@",
"@@@@@@@@  XoXOoXoOXoX  @@@@@@@@",
"@@@@@@@@ .XXOOXXXOOXX. @@@@@@@@",
"@@@ @@@@  XoXOoXoOXoX  @@@@ @@@",
"@@@.  @@ .oXOOXXXOOXo. @@  .@@@",
"@@@ ..   .XOXOoXoOXOX.   .. @@@",
"@@@...XX XoXOOOoOOOXoX XX...@@@",
"@@@ .XXo .XOXOOXOOXOX. oXX. @@@",
"@@@ ..XX.XoXOOOOOOOXoX.XX.. @@@",
"@@@@ XXo XXOOOOOOOOOXX oXX @@@@",
"@@@@ .oX.XoXOO+O+OOXoX.Xo. @@@@",
"@@@@@ Xo XXOOOO+OOOOXX oX @@@@@",
"@@@@@@ X.XoXOO+O+OOXoX.X @@@@@@",
"@@@@@@@  .XOO+O+O+OOX.  @@@@@@@",
"@@@@@@@@ XXXOO+++OOXXX @@@@@@@@",
"@@@@@@@@ .XoO+O+O+OoX. @@@@@@@@",
"@@@@@@@@ .XXOO+O+OOXX. @@@@@@@@",
"@@@@@@@@  XoXOO+OOXoX  @@@@@@@@",
"@@@@@@@@  .XOOOOOOOX.  @@@@@@@@",
"@@@@@@@@@ .XXOOOOOXX. @@@@@@@@@",
"@@@@@@@@@  .oXOXOXo.  @@@@@@@@@",
"@@@@@@@@@@ .XXXoXXX. @@@@@@@@@@",
"@@@@@@@@@@  .XXXXX.  @@@@@@@@@@",
"@@@@@@@@@@@ ..X.X.. @@@@@@@@@@@",
"@@@@@@@@@@@@.XoXoX.@@@@@@@@@@@@",
"@@@@@@@@@@@@ XXoXX @@@@@@@@@@@@",
"@@@@@@@@@@@@@XoOoX@@@@@@@@@@@@@",
"@@@@@@@@@@@@@XOOOX@@@@@@@@@@@@@",
"@@@@@@@@@@@@@.O+O.@@@@@@@@@@@@@",
"@@@@@@@@@@@@@ oOo @@@@@@@@@@@@@",
"@@@@@@@@@@@@@@XoX@@@@@@@@@@@@@@"
};
