/* XPM */
static char *dup[] = {
/* columns rows colors chars-per-pixel */
"32 32 11 1 ",
"  c #490000",
". c #6D2400",
"X c #242449",
"o c #49496D",
"O c #922424",
"+ c #B64900",
"@ c #DB9200",
"# c #6D6D92",
"$ c #B6B692",
"% c white",
"& c None",
/* pixels */
"&&&&&&&X Xo#oXX&&XXo#oX X&&&&&&&",
"&&&&&& .Xo#XXXo&&oXXX#oX. &&&&&&",
"&&&&& .O+XXXXo&&&&oXXXX+O. &&&&&",
"&&&& O+$+OXoX&&&&&&XoXO+$+O &&&&",
"&&&X.+%@O.XX&&&&&&&&XX.O@%+.X&&&",
"&&&XO@$+. &&&&&&&&&&&& .+$@OX&&&",
"&&&X.++O. &&&&&&&&&&&& .O++.X&&&",
"X&&& .O. &XX&&&&&&&&XX& .O. &&&X",
".&& O++ &X#X&  ..  &X#X& ++O &&.",
"O&&O+$+.&& .O++++++O. &&.+$+O&&O",
"+X&.O@+  .O++@$$$$@++O.  +@O.&X+",
"+X& .OO O++@$@@@@@@$@++O OO. &X+",
"@OX&   .++@@@+@++@+@@@++.   &XO@",
"++.&&&.O+@+@++++++++@+@+O.&&&.++",
"O+O.& .O++@++++OO++++@++O. &.O+O",
"XO@+. .O@+O++OOOOOO++O+@O. .+@OX",
"& .+@ .O+++OO+O++O+OO+++O. @+. &",
"&&&.OO.OO+OO+$+OO+$+OO+OO.OO.&&&",
"&X.X.. .OOO+O+O++O+O+OOO. ..X.X&",
" O++O X ...O+O+OO+O+O... X O++O ",
"O. X .O+OX  .+O++O+.  XO+O. X .O",
"&X.O@+O &O@O  .OO.  O@O& O+@O.X&",
"XO+O. X&O$+O.X&&&&X.O+$O&X .O+OX",
" .O X&&.OO. X&&&&&&X .OO.&&X O. ",
" +O.&&&.+ X&&&&&&&&&&X +.&&&.O+ ",
"& +.X&& @+ &&&&&&&&&& +@ &&X.+ &",
"&& . &&XO+OX&&&&&&&&XO+OX&& . &&",
"&&& +X&& .. &&&&&&&& .. &&X+ &&&",
"&&&&X+ &&&X+ &&&&&& +X&&& +X&&&&",
"&&&&& O &&& O &&&& O &&& O &&&&&",
"&&&&&&&&&&&&&&&&&&&&&&&&&&&&&&&&",
"&&&&&&&&&&&&&&&&&&&&&&&&&&&&&&&&"
};
