/* XPM */
static char *left[] = {
/* columns rows colors chars-per-pixel */
"32 32 11 1 ",
"  c #490000",
". c #6D2400",
"X c #242449",
"o c #49496D",
"O c #922424",
"+ c #B64900",
"@ c #DB9200",
"# c #6D6D92",
"$ c #B6B692",
"% c white",
"& c None",
/* pixels */
"&&&&&&&X.O++@+OX&&& O&X  &&&&&&&",
"&&&&&&&&&&XXO++O &XO.XO.+ &&&&&&",
"&&&&&&&&&&&&X.O@.&.+ .+OO+ &&&&&",
"&&&&XXX& O. &&.++.X+XOO ... &&&&",
"&&& .O. O+O. &&.@O.O @.X&X +X&&&",
"&& O+@+.+$@O &   O. .+ &&&&X+ &&",
"& .+%$+O+++O ..... XOOX&&&&& O&&",
"X.O$@+O. .  .OOOOO. + &.. X&& &&",
" X++O.. && O+++@+OO.O&OO+@O &&&&",
"XoXO.  &X&.++@++++O.XO$O ++.&&&&",
"o#XXX&&X# O+@+@O+OO. @+.X O.X&&&",
"#XXoX&&XX.+@@@++OO+O OO &&X + &&",
"oXXX&&&&&O+$@+++O+O+. .X&&&& O&&",
"XXo&&&&& +@@+++O+$+O+ X&&&&&& &&",
"Xo&&&&&& +$@@++OO+O+O.&&&&&&&&&&",
"&&&&&&&&.+$@++OO+O+O+O&&&&&&&&&&",
"&&&&&&&&.+$@++OO+O+O+O&&&&&&&&&&",
"Xo&&&&&& +$@@++OO+O+O.&&&&&&&&&&",
"XXo&&&&& +@@+++O+$+O+ X&&&&&& &&",
"oXXX&&&&&O+$@+++O+O+. .X&&&& O&&",
"#XXoX&&XX.+@@@++OO+O OO &&X + &&",
"o#XXX&&X# O+@+@O+OO. @+.X O.X&&&",
"XoXO.  &X&.++@++++O.XO$O ++.&&&&",
" X++O.. && O+++@+OO.O&OO+@O &&&&",
"X.O$@+O. .  .OOOOO. + &.. X&& &&",
"& .+%$+O+++O ..... XOOX&&&&& O&&",
"&& O+@+.+$@O &   O. .+ &&&&X+ &&",
"&&& .O. O+O. &&.@O.O @.X&X +X&&&",
"&&&&XXX& O. &&.++.X+XOO ... &&&&",
"&&&&&&&&&&&&X.O@.&.+ .+OO+ &&&&&",
"&&&&&&&&&&XXO++O &XO.XO.+ &&&&&&",
"&&&&&&&X.O++@+OX&&& O&X  &&&&&&&"
};
