/* XPM */
static char *left[] = {
/* columns rows colors chars-per-pixel */
"64 31 7 1 ",
"  c #494992",
". c #6D6DB6",
"X c #9292B6",
"o c #B6B6DB",
"O c #DBDBFF",
"+ c white",
"@ c None",
/* pixels */
"@@@@@@@@@@@@@@@@@@@@@@@@@@@@@@@@@@@@@@@@@@@@@@@@@@@@@@@@@@@@@@@@",
"@@@@@@@@@@@@@@@@@@@@@@@@@@@@@@@@@@@@@@@@@@@@@@@@@@@@@@@@@@@@@@@@",
"@@@@@@@@@@@@@@@@@@@@@@@@@@@@@@@@@@@@@@@@@@@@@@@@@@@@@@@@@@@@@@@@",
"@@@@@@@@@@@@@@@@@@@@@@  . . @@@@@@@@@@@@@@@@@@@@@@@@@@@@@@@@@@@@",
"@@@@@@@@@@@@@@@@@@@@  .... @@@@@@@@@@@@@@@@@@@@@@@@@@@@@@@@@@@@@",
"@@@@@@@@@@@@@@@@@@@ .X.X.. @@@@@@@@@@@@@@@@@@@@@@@@@@@@@@@@@@@@@",
"@@@@@@@@@@@@@@@@@@ XoXXXX @@@@@@@@@@@@@@@@@@@@@@@@@@@@@@@@@@@@@@",
"@@@@@@@@@@@@@@@@@ XoXoXoX @@@@@@@@@@@@@@@@@@@@@@@@@@@@@@@@@@@@@@",
"@@@@@@@@@@@@      . . .          @@@@@@@@@@@@@@@@@@@@@@@@@@@@XX ",
"@@@@@@@@@@    ..X.XXXXX.X.. .         @@@@@@@@@@@@@@@@@@@@@ ooX@",
"@@@@@@@@   ..XXXXXoXoXoXoXoXXXXX....   .   @@@@@@@@@@@@@@@ oOo @",
"@@@@@@@  ..XXoXoXOXOXOXOXOXoXoXoXoXoXX. .      @@@@@@@@@@ XoXo@@",
"@@@@@ ...XoXOXOOOOOOOOOXOXOXOXOXOXoXoXoXXX...      @@@@@ XOXoX@@",
"@ .XXXX.XXXOOOO+O+OOOOOOOOOOOOOOoOXOXOXoXoXXXX..        XXXoX.@@",
"XoOOoXoXXXOOOO+O+O+O+OOOOoXoXoXoOOOOOOOOoXOXoXXXXX....XXoXoXX @@",
"oO+OOoX.XoXOO+O+++O+OOOXoXXXXXXXXOOO+OO+OOoOXoXoXXXXXoXoXoXo.@@@",
"XoOOoXoXXXOOOO+O+O+O+OOOOoXoXoXoOOOOOOOOoXOXoXXXXX....XXoXoXX @@",
"@ .XXXX.XXXOOOO+O+OOOOOOOOOOOOOOoOXOXOXoXoXXXX..        XXXoX.@@",
"@@@@@ ...XoXOXOOOOOOOOOXOXOXOXOXOXoXoXoXXX...      @@@@@ XOXoX@@",
"@@@@@@@  ..XXoXoXOXOXOXOXOXoXoXoXoXoXX. .      @@@@@@@@@@ XoXo@@",
"@@@@@@@@   ..XXXXXoXoXoXoXoXXXXX....   .   @@@@@@@@@@@@@@@ oOo @",
"@@@@@@@@@@    ..X.XXXXX.X.. .         @@@@@@@@@@@@@@@@@@@@@ ooX@",
"@@@@@@@@@@@@      . . .          @@@@@@@@@@@@@@@@@@@@@@@@@@@@XX ",
"@@@@@@@@@@@@@@@@@ XoXoXoX @@@@@@@@@@@@@@@@@@@@@@@@@@@@@@@@@@@@@@",
"@@@@@@@@@@@@@@@@@@ XoXXXX @@@@@@@@@@@@@@@@@@@@@@@@@@@@@@@@@@@@@@",
"@@@@@@@@@@@@@@@@@@@ .X.X.. @@@@@@@@@@@@@@@@@@@@@@@@@@@@@@@@@@@@@",
"@@@@@@@@@@@@@@@@@@@@  .... @@@@@@@@@@@@@@@@@@@@@@@@@@@@@@@@@@@@@",
"@@@@@@@@@@@@@@@@@@@@@@  . . @@@@@@@@@@@@@@@@@@@@@@@@@@@@@@@@@@@@",
"@@@@@@@@@@@@@@@@@@@@@@@@@@@@@@@@@@@@@@@@@@@@@@@@@@@@@@@@@@@@@@@@",
"@@@@@@@@@@@@@@@@@@@@@@@@@@@@@@@@@@@@@@@@@@@@@@@@@@@@@@@@@@@@@@@@",
"@@@@@@@@@@@@@@@@@@@@@@@@@@@@@@@@@@@@@@@@@@@@@@@@@@@@@@@@@@@@@@@@"
};
