/* XPM */
static char *_4_0__copy_[] = {
/* columns rows colors chars-per-pixel */
"64 31 7 1 ",
"  c #494992",
". c #6D6DB6",
"X c #9292B6",
"o c #B6B6DB",
"O c #DBDBFF",
"+ c white",
"@ c None",
/* pixels */
"@@@@@@@@@@@@@@@@@@@@@@@@@@@@@@@@@@@@@@@@@@@@@@@@@@@@@@@@@@@@@@@@",
"@@@@@@@@@@@@@@@@@@@@@@@@@@@@@@@@@@@@@@@@@@@@@@@@@@@@@@@@@@@@@@@@",
"@@@@@@@@@@@@@@@@@@@@@@@@@@@@@@@@@@@@@@@@@@@@@@@@@@@@@@@@@@@@@@@@",
"@@@@@@@@@@@@@@@@@@@@@@@@@@@@@@@@@@@@ . .  @@@@@@@@@@@@@@@@@@@@@@",
"@@@@@@@@@@@@@@@@@@@@@@@@@@@@@@@@@@@@@ ....  @@@@@@@@@@@@@@@@@@@@",
"@@@@@@@@@@@@@@@@@@@@@@@@@@@@@@@@@@@@@ ..X.X. @@@@@@@@@@@@@@@@@@@",
"@@@@@@@@@@@@@@@@@@@@@@@@@@@@@@@@@@@@@@ XXXXoX @@@@@@@@@@@@@@@@@@",
"@@@@@@@@@@@@@@@@@@@@@@@@@@@@@@@@@@@@@@ XoXoXoX @@@@@@@@@@@@@@@@@",
" XX@@@@@@@@@@@@@@@@@@@@@@@@@@@@          . . .      @@@@@@@@@@@@",
"@Xoo @@@@@@@@@@@@@@@@@@@@@         . ..X.XXXXX.X..    @@@@@@@@@@",
"@ oOo @@@@@@@@@@@@@@@   .   ....XXXXXoXoXoXoXoXXXXX..   @@@@@@@@",
"@@oXoX @@@@@@@@@@      . .XXoXoXoXoXoXOXOXOXOXOXoXoXX..  @@@@@@@",
"@@XoXOX @@@@@      ...XXXoXoXoXOXOXOXOXOXOOOOOOOOOXOXoX... @@@@@",
"@@.XoXXX        ..XXXXoXoXOXOXOoOOOOOOOOOOOOOO+O+OOOOXXX.XXXX. @",
"@@ XXoXoXX....XXXXXoXOXoOOOOOOOOoXoXoXoOOOO+O+O+O+OOOOXXXoXoOOoX",
"@@@.oXoXoXoXXXXXoXoXOoOO+OO+OOOXXXXXXXXoXOOO+O+++O+OOXoX.XoOO+Oo",
"@@ XXoXoXX....XXXXXoXOXoOOOOOOOOoXoXoXoOOOO+O+O+O+OOOOXXXoXoOOoX",
"@@.XoXXX        ..XXXXoXoXOXOXOoOOOOOOOOOOOOOO+O+OOOOXXX.XXXX. @",
"@@XoXOX @@@@@      ...XXXoXoXoXOXOXOXOXOXOOOOOOOOOXOXoX... @@@@@",
"@@oXoX @@@@@@@@@@      . .XXoXoXoXoXoXOXOXOXOXOXoXoXX..  @@@@@@@",
"@ oOo @@@@@@@@@@@@@@@   .   ....XXXXXoXoXoXoXoXXXXX..   @@@@@@@@",
"@Xoo @@@@@@@@@@@@@@@@@@@@@         . ..X.XXXXX.X..    @@@@@@@@@@",
" XX@@@@@@@@@@@@@@@@@@@@@@@@@@@@          . . .      @@@@@@@@@@@@",
"@@@@@@@@@@@@@@@@@@@@@@@@@@@@@@@@@@@@@@ XoXoXoX @@@@@@@@@@@@@@@@@",
"@@@@@@@@@@@@@@@@@@@@@@@@@@@@@@@@@@@@@@ XXXXoX @@@@@@@@@@@@@@@@@@",
"@@@@@@@@@@@@@@@@@@@@@@@@@@@@@@@@@@@@@ ..X.X. @@@@@@@@@@@@@@@@@@@",
"@@@@@@@@@@@@@@@@@@@@@@@@@@@@@@@@@@@@@ ....  @@@@@@@@@@@@@@@@@@@@",
"@@@@@@@@@@@@@@@@@@@@@@@@@@@@@@@@@@@@ . .  @@@@@@@@@@@@@@@@@@@@@@",
"@@@@@@@@@@@@@@@@@@@@@@@@@@@@@@@@@@@@@@@@@@@@@@@@@@@@@@@@@@@@@@@@",
"@@@@@@@@@@@@@@@@@@@@@@@@@@@@@@@@@@@@@@@@@@@@@@@@@@@@@@@@@@@@@@@@",
"@@@@@@@@@@@@@@@@@@@@@@@@@@@@@@@@@@@@@@@@@@@@@@@@@@@@@@@@@@@@@@@@"
};
