/* XPM */
static char *right[] = {
/* columns rows colors chars-per-pixel */
"32 32 11 1 ",
"  c #490000",
". c #6D2400",
"X c #242449",
"o c #49496D",
"O c #922424",
"+ c #B64900",
"@ c #DB9200",
"# c #6D6D92",
"$ c #B6B692",
"% c white",
"& c None",
/* pixels */
"&&&&&&&  X&O &&&XO+@++O.X&&&&&&&",
"&&&&&& +.OX.OX& O++OXX&&&&&&&&&&",
"&&&&& +OO+. +.&.@O.X&&&&&&&&&&&&",
"&&&& ... OOX+X.++.&& .O &XXX&&&&",
"&&&X+ X&X.@ O.O@.&& .O+O .O. &&&",
"&& +X&&&& +. .O   & O@$+.+@+O &&",
"&&O &&&&&XOOX ..... O+++O+$%+. &",
"&& &&X ..& + .OOOOO.  . .O+@$O.X",
"&&&& O@+OO&O.OO+@+++O && ..O++X ",
"&&&&.++ O$OX.O++++@++.&X&  .OXoX",
"&&&X.O X.+@ .OO+O@+@+O #X&&XXX#o",
"&& + X&& OO O+OO++@@@+.XX&&XoXX#",
"&&O &&&&X. .+O+O+++@$+O&&&&&XXXo",
"&& &&&&&&X +O+$+O+++@@+ &&&&&oXX",
"&&&&&&&&&&.O+O+OO++@@$+ &&&&&&oX",
"&&&&&&&&&&O+O+O+OO++@$+.&&&&&&&&",
"&&&&&&&&&&O+O+O+OO++@$+.&&&&&&&&",
"&&&&&&&&&&.O+O+OO++@@$+ &&&&&&oX",
"&& &&&&&&X +O+$+O+++@@+ &&&&&oXX",
"&&O &&&&X. .+O+O+++@$+O&&&&&XXXo",
"&& + X&& OO O+OO++@@@+.XX&&XoXX#",
"&&&X.O X.+@ .OO+O@+@+O #X&&XXX#o",
"&&&&.++ O$OX.O++++@++.&X&  .OXoX",
"&&&& O@+OO&O.OO+@+++O && ..O++X ",
"&& &&X ..& + .OOOOO.  . .O+@$O.X",
"&&O &&&&&XOOX ..... O+++O+$%+. &",
"&& +X&&&& +. .O   & O@$+.+@+O &&",
"&&&X+ X&X.@ O.O@.&& .O+O .O. &&&",
"&&&& ... OOX+X.++.&& .O &XXX&&&&",
"&&&&& +OO+. +.&.@O.X&&&&&&&&&&&&",
"&&&&&& +.OX.OX& O++OXX&&&&&&&&&&",
"&&&&&&&  X&O &&&XO+@++O.X&&&&&&&"
};
