/* XPM */
static char *sapo[] = {
/* columns rows colors chars-per-pixel */
"32 32 109 2 ",
"   c #1705BC",
".  c #1806BD",
"X  c #120CC5",
"o  c #0419CF",
"O  c #0619D0",
"+  c #071AD9",
"@  c #091BD9",
"#  c #3F19C7",
"$  c #3D19C8",
"%  c #0022DA",
"&  c #3720CD",
"*  c #3821CE",
"=  c #292FDC",
"-  c #121FEC",
";  c #0624E4",
":  c #0C22EB",
">  c #1722F7",
",  c #1823F7",
"<  c #1B21FA",
"1  c #2336E4",
"2  c #2A36EB",
"3  c #2C2CFF",
"4  c #312FFF",
"5  c #3C35FD",
"6  c #3E3FFF",
"7  c #411AC7",
"8  c #411CC8",
"9  c #4722C8",
"0  c #4A25C8",
"q  c #512BC8",
"w  c #4E2AD3",
"e  c #532ED4",
"r  c #5834D3",
"t  c #4136FF",
"y  c #463DFF",
"u  c #4045EB",
"i  c #4647FF",
"p  c #4D46FF",
"a  c #4748FF",
"s  c #4B4AFF",
"d  c #5645FF",
"f  c #564EFF",
"g  c #584FFF",
"h  c #5750FF",
"j  c #5A51FF",
"k  c #5F58FF",
"l  c #7654EF",
"z  c #7852ED",
"x  c #7F59EE",
"c  c #6E5BF6",
"v  c #6757FF",
"b  c #6A55FF",
"n  c #635BFF",
"m  c #6A5AFF",
"M  c #7A55F1",
"N  c #705BF6",
"B  c #7F59F1",
"V  c #735CFC",
"C  c #795CFF",
"Z  c #6A62FF",
"A  c #7E62FF",
"S  c #805AF1",
"D  c #8D68ED",
"F  c #946FEE",
"G  c #9B76ED",
"H  c #8364FE",
"J  c #8B66FA",
"K  c #866AFF",
"L  c #8E6AFF",
"P  c #956FF0",
"I  c #936DFF",
"U  c #9670FF",
"Y  c #9B75FF",
"T  c #957AFF",
"R  c #9E78FF",
"E  c #A37EFF",
"W  c #9B81FF",
"Q  c #AA85ED",
"!  c #A583FF",
"~  c #AB86FF",
"^  c #A588FF",
"/  c #AD89FF",
"(  c #B18CFF",
")  c #AF92FF",
"_  c #B296FF",
"`  c #BA96FF",
"'  c #C19CFF",
"]  c #C4A1FF",
"[  c #C9A4FF",
"{  c #D1ACFF",
"}  c #D9B3FF",
"|  c #DDB8FF",
" . c #E3BEFF",
".. c #D1C1FF",
"X. c #E6C1FF",
"o. c #E9C4FF",
"O. c #E3C8FF",
"+. c #ECCAFF",
"@. c #E3D7FF",
"#. c #E7DFFF",
"$. c #EBDFFF",
"%. c #F7D2FF",
"&. c #FAD5FF",
"*. c #FBDBFF",
"=. c #E8E0FF",
"-. c #FFE7FF",
";. c #FFE9FF",
":. c #FFFDFF",
">. c None",
/* pixels */
">.>.I I U U U R ( ` ` ' } } ] ` ` ( R U U U U U U U U c 1 % >.>.",
">.>.I J B z z x F F F G Q Q G F F D x z z z z l N A L c 1 % >.>.",
">.>.U B e # # 8 9 9 0 0 q q 0 0 0 9 8 8 8 7 8 * = u A c 1 % >.>.",
">.>.U l &     . . . . . . . . . . . . . . . . X O 2 N N 1 % >.>.",
">.>.I N = o o o O O O O O O O O O O O O O O o @ - 5 C N 1 % >.>.",
">.>.U N 2 ; ; ; ; ; ; ; ; ; ; ; ; ; ; ; ; ; ; : , t C N 1 % >.>.",
">.>.U V 5 > > , , , , , , , , , , > , , , , , < < t C N 1 % >.>.",
">.>.I A y 3 3 3 3 4 5 t t t t t t t t t t t t 5 5 d H N 1 % >.>.",
">.>.I H f 6 6 6 6 p b C C C C C C C C C C C C C C H I c 1 % >.>.",
">.>.I H m j j j j m K J B x J U U U U I U I U I U I U c 1 + >.>.",
">.>.I I H H A H H K I B e # >.>.>.>.>.>.>.>.>.>.>.>.>.>.>.>.>.>.",
">.>.I I Y Y Y Y Y Y U M e $ >.>.>.>.>.>.>.>.>.>.>.>.>.>.>.>.>.>.",
">.>.I U ! / / ( / ! Y J M z J I I I L L L I L I I I >.>.>.>.>.>.",
">.>.I Y ( ' ' ' ' ` ~ E ! E E E E E E E E E E R U I >.>.>.>.>.>.",
">.>.I E ' { { { { { [ [ [ [ [ [ [ [ [ [ [ [ [ ` R L >.>.>.>.>.>.",
">.>.L ! { X.X.X. . .X.X.X.X.X.o.X.X.X.X.X.o.o.{ ! I >.>.>.>.>.>.",
">.>.I ~ | %.%.%.%.&.&.&.&.&.&.&.&.&.&.&.&.&.*. .! I >.>.>.>.>.>.",
">.>.L ^ O.;.-.-.;.*.+.X.X.X.X.X. .X. .X.X.X.X.{ E I >.>.>.>.>.>.",
">.>.L / @.:.:.:.:.#.] / / / ~ ~ ~ ~ / ~ ~ ~ ~ ! U I >.>.>.>.>.>.",
">.>.I ^ ..=.#.#.=...^ S M z J L I L L L L L L L I I >.>.>.>.>.>.",
">.>.I Y ^ ) ) ) ) ^ R M w # >.>.>.>.>.>.>.>.>.>.>.>.>.>.>.>.>.>.",
">.>.I K H A A A A H I S r 0 >.>.>.>.>.>.>.>.>.>.>.>.>.>.>.>.>.>.",
">.>.I H v h h h h v H U F F I R ( ' } } ' ` ` ( R R ( ( Y I >.>.",
">.>.I H h i a i i h V K W T K K T ^ _ _ ^ W W T K K T T U I >.>.",
">.>.U H j i i i i s f j n n j j n n Z m n n n n j j k Z K I >.>.",
">.>.I H m h j j j j h h h h j j h h h f j f f j j j h v H I >.>.",
">.>.I I H H A A H H A A A A A A A A A A A A A A A A A H I I >.>.",
">.>.I U Y R R R Y R R R R R R R R R E Y R R R R R R R Y I I >.>.",
">.>.I R ~ ( ( ( ( ( ( ( ( ( ( / ( ( ( ( ( / ( ( ( ( ( ~ Y I >.>.",
">.>.A K T W W W W W W W W W W W W W W W W W W W W W W T K H >.>.",
">.>.j j k v n n n n n n n n n n n v n n n n n n n n v k j j >.>.",
">.>.a a a i i i i i i i a a i a a i i i i i i a a a i i s a >.>."
};
