/* XPM */
static char *_8cd21b1e1754a82bebd92a8cad779c6TSuZeSdQoQuJ1zG4[] = {
/* columns rows colors chars-per-pixel */
"31 64 7 1 ",
"  c None",
". c #494992",
"X c #6D6DB6",
"o c #9292B6",
"O c #B6B6DB",
"+ c #DBDBFF",
"@ c white",
/* pixels */
"              oOo              ",
"             .O+O.             ",
"             X+@+X             ",
"             o+++o             ",
"             oO+Oo             ",
"            .ooOoo.            ",
"            XoOoOoX            ",
"           .XXoXoXX.           ",
"          ..XoooooX..          ",
"          .XoooOoooX.          ",
"         ..XOo+o+oOX..         ",
"         .Xoo+++++ooX.         ",
"        ..Xo+++++++oX..        ",
"        ..oOo++@++oOo..        ",
"        .Xoo++@+@++ooX.        ",
"        .XoO+@+@+@+OoX.        ",
"        .ooo++@@@++ooo.        ",
"       ..Xo++@+@+@++oX..       ",
"      .oXoOo++@+@++oOoXo.      ",
"     .oO.oo++++@++++oo.Oo.     ",
"    .XOoXoOo++@+@++oOoXoOX.    ",
"    .ooO.oo+++++++++oo.Ooo.    ",
"   .XXooXoOo+++++++oOoXooXX.   ",
"   .XooO.Xo+o++o++o+oX.OooX.   ",
"   XXXoo.oOo+++O+++oOo.ooXXX   ",
"   .XX...Xo+o+OoO+o+oX...XX.   ",
"   X..  .XOo++ooo++oOX.  ..X   ",
"   .    ..oOo+OoO+oOo..    .   ",
"        .Xoo++ooo++ooX.        ",
"        ..oOo+OoO+oOo..        ",
"        ..oo++ooo++oo..        ",
"        ..oOo+OoO+oOo..        ",
"        ..Xo+O+o+O+oX..        ",
"         .XOo+++++oOX.         ",
"         .XoOo+++oOoX.         ",
"         .XOo+++++oOX.         ",
"         ..oOo+@+oOo..         ",
"         ..oo+++++oo..         ",
"          .XOo+++oOX.          ",
"          X.oO+@+Oo.X          ",
"          .XooO+OooX.          ",
"          ..oOo+oOo..          ",
"          ..Xo+O+oX..          ",
"           .Xoo+ooX.           ",
"           .XoOoOoX.           ",
"           ..ooOoo..           ",
"           ..XoooX..           ",
"            .XoOoX.            ",
"            ..ooo..            ",
"            ..ooo..            ",
"            ..XoX..            ",
"             .XoX.             ",
"             .XoX.             ",
"             .XOX.             ",
"             .ooo.             ",
"             .oOo.             ",
"            .oOoOo.            ",
"           .oooOooo.           ",
"          .o+oOoOo+o.          ",
"         .OOoOoOoOoOO.         ",
"         O+oOooXooOo+O         ",
"        oOOOoX. .XoOOOo        ",
"        oo.         .oo        ",
"        .             .        "
};
