/* XPM */
static char *cff297b1614d4a1990b85342d2ff4117fYmZgsFiU30ilxec[] = {
/* columns rows colors chars-per-pixel */
"32 32 14 1 ",
"  c None",
". c #490000",
"X c #6D2400",
"o c #242449",
"O c #49496D",
"+ c #922424",
"@ c #B64900",
"# c #92246D",
"$ c #DB9200",
"% c #FFDB00",
"& c #6D6D92",
"* c #B64992",
"= c #B6B692",
"- c white",
/* pixels */
"              @                 ",
"             .&                 ",
"             .$            o    ",
"             X%            O    ",
"             O%           o&    ",
"             @-.          O$    ",
"             &-X          @&    ",
"             $%O         O=O    ",
"             =-@         &$O    ",
"            .=%&.       O=@O    ",
"            .=-&X       &=@O    ",
"            .=%$O      O=$@o    ",
"            .%=$@     O&=@+o    ",
"  X         .=%=@O   O&=$@Xo    ",
"  X&        .%=%&O  O&&&$+o     ",
"  X=        .=%=$O O&*&&@+o     ",
"  X%&        $=%$@O&*&&@+O      ",
"  X==O       &%==$@&&&@@Xo      ",
"  X$%=O      @=%=$@O&@@+O       ",
"  o@=-=O     O==%=$@O@+Oo       ",
"  oX$=-=&O   X$=$=$$@OOo        ",
"   X@==-==&&O.$==$$@@Xo        o",
"   oX@====XO&OX$$$$$@Xo       Oo",
"    oX@==@&&=O.@$$$@@X.      &Oo",
"     oX@$XO=&&OX@$@$@XX   oO*&Oo",
"       X+@O=$&O.$@$@@XXooO&*&+O ",
"        oXO=&&O.@$@@#X.&&**&&Oo ",
"          O&$&O.@@X@XX.O&&&&+o  ",
"    OOOOO o&&&XX#X#XX.oO&&&+O   ",
"   O&=&&OOoO&&OXXXX..oOoO&+Oo   ",
"  OoooOO&OOoO&&OOoOoOooO++Oo    ",
"       oOOoOooOOoOoOoO+Ooo      "
};
